# xmcd CD database file
#
# Track frame offsets:
#	150
#	19355
#	39987
#	55189
#	68920
#	90540
#	112082
#	135092
#	160297
#
# Disc length: 2417 seconds
#
# Revision: 0
# Processed by: cddbd v1.4PL0 Copyright (c) Steve Scherf et al.
# Submitted via: CDex 1.40Release
#
DISCID=70096f09
DTITLE=Molten Mike Group - Blues meltdown
DYEAR=1997
DGENRE=Blues
TTITLE0=You Go Your Way (I'll Go Mine)
TTITLE1=Can't Get You Off My Mind
TTITLE2=Standing in the Shadows
TTITLE3=Funkdillyicious
TTITLE4=You'd Be the First To Go
TTITLE5=The Leaves All Change
TTITLE6=Back of My Mind
TTITLE7=Sooner or Later
TTITLE8=Just Thinking of You
EXTD=YEAR: 1997 ID3G: 0
EXTT0=
EXTT1=
EXTT2=
EXTT3=
EXTT4=
EXTT5=
EXTT6=
EXTT7=
EXTT8=
PLAYORDER=
